<?xml version="1.0"?>
<svg xmlns="http://www.w3.org/2000/svg" width="48" height="51" viewBox="0 0 48 51" fill="none">
<path d="M2.18182 26.9092C0.976833 26.9092 -3.55776e-08 26.0952 -7.94648e-08 25.091L-2.38394e-07 21.4546C-2.82282e-07 20.4505 0.976833 19.6365 2.18182 19.6365C3.3868 19.6365 4.36364 20.4505 4.36364 21.4546L4.36364 25.091C4.36364 26.0952 3.3868 26.9092 2.18182 26.9092Z" fill="white"/>
<path fill-rule="evenodd" clip-rule="evenodd" d="M11.8438 13.7148C9.26169 13.7148 7.16848 15.8084 7.16848 18.3909V35.3237C7.16848 37.6051 8.80489 39.5103 10.9687 39.9185C12.7331 40.2514 14.649 41.7813 14.649 44.2083V47.3707L21.3757 41.1242C22.154 40.4014 23.1767 39.9998 24.2387 39.9998H36.1555C38.7376 39.9998 40.8308 37.9062 40.8308 35.3237V18.3909C40.8308 15.8084 38.7376 13.7148 36.1555 13.7148H11.8438ZM4.36328 18.3909C4.36328 14.2589 7.71242 10.9092 11.8438 10.9092H36.1555C40.2869 10.9092 43.636 14.2589 43.636 18.3909V35.3237C43.636 39.4557 40.2869 42.8054 36.1555 42.8054H24.2387C23.8847 42.8054 23.5438 42.9393 23.2844 43.1802L16.5577 49.4268C14.7627 51.0936 11.8438 49.8204 11.8438 47.3707L11.8438 44.2083C11.8438 43.4335 11.21 42.8192 10.4488 42.6756C6.98409 42.022 4.36328 38.9789 4.36328 35.3237V18.3909Z" fill="white"/>
<path d="M45.8185 26.9092C44.6136 26.9092 43.6367 26.0952 43.6367 25.091L43.6367 21.4546C43.6367 20.4505 44.6136 19.6365 45.8185 19.6365C47.0235 19.6365 48.0004 20.4505 48.0004 21.4546L48.0004 25.091C48.0004 26.0952 47.0235 26.9092 45.8185 26.9092Z" fill="white"/>
<path d="M30.0491 31.1895C30.587 31.1895 31.0327 31.6067 30.9299 32.1071C30.3917 34.7292 27.5855 36.7279 24.2047 36.7279C20.8219 36.7279 18.112 34.711 17.5094 32.1309C17.3908 31.6231 17.8397 31.1895 18.3886 31.1895H30.0491Z" fill="white"/>
<circle cx="23.9993" cy="4.03636" r="4.03636" fill="white"/>
<rect x="22.6543" y="5.38184" width="2.69091" height="4.03636" fill="white"/>
<rect x="13.4551" y="17.4907" width="6.72727" height="10.7636" rx="3" fill="white"/>
<rect x="28.2559" y="17.4907" width="6.72727" height="10.7636" rx="3" fill="white"/>
</svg>
