<?xml version="1.0"?>
<svg xmlns="http://www.w3.org/2000/svg" width="20" height="20" viewBox="0 0 20 20" fill="none">
<path fill-rule="evenodd" clip-rule="evenodd" d="M14 4H6C4.89543 4 4 4.89543 4 6V14C4 15.1046 4.89543 16 6 16H14C15.1046 16 16 15.1046 16 14V6C16 4.89543 15.1046 4 14 4ZM6 2C3.79086 2 2 3.79086 2 6V14C2 16.2091 3.79086 18 6 18H14C16.2091 18 18 16.2091 18 14V6C18 3.79086 16.2091 2 14 2H6Z" fill="#FC927C"/>
<path fill-rule="evenodd" clip-rule="evenodd" d="M14.5547 6.16806C15.0142 6.47441 15.1384 7.09528 14.8321 7.55481L12.0151 11.7802C11.5556 12.4694 10.5651 12.5292 10.026 11.9003L7.98168 9.51532L4.2433 13.6691C3.87384 14.0796 3.24155 14.1129 2.83104 13.7434C2.42053 13.3739 2.38726 12.7417 2.75671 12.3311L7.06631 7.5427C7.57096 6.98198 8.45355 6.99265 8.9445 7.56542L10.9002 9.84706L13.168 6.44541C13.4743 5.98588 14.0952 5.8617 14.5547 6.16806Z" fill="#FC927C"/>
</svg>
