<?xml version="1.0"?>
<svg xmlns="http://www.w3.org/2000/svg" width="20" height="20" viewBox="0 0 20 20" fill="none">
<path fill-rule="evenodd" clip-rule="evenodd" d="M2 5C2 3.34315 3.34315 2 5 2H9.5625C10.1148 2 10.5625 2.44772 10.5625 3C10.5625 3.55228 10.1148 4 9.5625 4H5C4.44772 4 4 4.44772 4 5V15C4 15.5523 4.44772 16 5 16H15C15.5523 16 16 15.5523 16 15V10C16 9.44772 16.4477 9 17 9C17.5523 9 18 9.44772 18 10V15C18 16.6569 16.6569 18 15 18H5C3.34315 18 2 16.6569 2 15V5ZM15 2C15.5523 2 16 2.44772 16 3V4H17C17.5523 4 18 4.44772 18 5C18 5.55228 17.5523 6 17 6H16V7C16 7.55228 15.5523 8 15 8C14.4477 8 14 7.55228 14 7V6H13C12.4477 6 12 5.55228 12 5C12 4.44772 12.4477 4 13 4H14V3C14 2.44772 14.4477 2 15 2Z" fill="#FC927C"/>
<path d="M7 9L7 8C7 7.44772 7.44772 7 8 7C8.55228 7 9 7.44772 9 8L9 9C9 9.55228 8.55228 10 8 10C7.44772 10 7 9.55228 7 9Z" fill="#FC927C"/>
<path d="M11 9L11 8C11 7.44772 11.4477 7 12 7C12.5523 7 13 7.44772 13 8L13 9C13 9.55228 12.5523 10 12 10C11.4477 10 11 9.55228 11 9Z" fill="#FC927C"/>
<path fill-rule="evenodd" clip-rule="evenodd" d="M6.29289 11.2929C6.68342 10.9024 7.31658 10.9024 7.70711 11.2929C8.59811 12.1839 9.35876 12.5 10 12.5C10.6412 12.5 11.4019 12.1839 12.2929 11.2929C12.6834 10.9024 13.3166 10.9024 13.7071 11.2929C14.0976 11.6834 14.0976 12.3166 13.7071 12.7071C12.5981 13.8161 11.3588 14.5 10 14.5C8.64124 14.5 7.40189 13.8161 6.29289 12.7071C5.90237 12.3166 5.90237 11.6834 6.29289 11.2929Z" fill="#FC927C"/>
</svg>
