<?xml version="1.0"?>
<svg xmlns="http://www.w3.org/2000/svg" width="30" height="30" viewBox="0 0 30 30" fill="none">
<path fill-rule="evenodd" clip-rule="evenodd" d="M15 4C8.86399 4 4 8.65272 4 14.2604C4 17.1555 5.2858 19.7814 7.37788 21.6576L7.95978 22.1795L6.31493 25.2847C7.53476 25.6147 9.84724 25.7211 12.2528 24.4364L12.5593 24.2728L12.9012 24.3344C13.5798 24.4566 14.2814 24.5208 15 24.5208C21.136 24.5208 26 19.8681 26 14.2604C26 8.65272 21.136 4 15 4ZM2 14.2604C2 7.4302 7.88118 2 15 2C22.1188 2 28 7.4302 28 14.2604C28 21.0906 22.1188 26.5208 15 26.5208C14.2809 26.5208 13.5748 26.4657 12.8863 26.3595C9.84029 27.8689 6.89561 27.6227 5.35702 27.0805C4.35562 26.7276 3.90219 25.5669 4.39919 24.6286L5.47245 22.6025C3.32528 20.422 2 17.4918 2 14.2604Z" fill="white"/>
<path d="M15.2241 15.696C15.2241 15.904 15.1441 16.08 14.9841 16.224C14.8401 16.368 14.6561 16.44 14.4321 16.44C14.2081 16.44 14.0161 16.368 13.8561 16.224C13.7121 16.08 13.6401 15.904 13.6401 15.696V15.12C13.6401 14.656 13.7761 14.28 14.0481 13.992C14.3361 13.704 14.6241 13.448 14.9121 13.224C15.1841 13.016 15.4321 12.784 15.6561 12.528C15.8961 12.256 16.0161 11.936 16.0161 11.568C16.0161 11.216 15.8881 10.936 15.6321 10.728C15.3921 10.504 15.0641 10.392 14.6481 10.392C14.2961 10.392 14.0161 10.48 13.8081 10.656C13.6001 10.832 13.4801 11.08 13.4481 11.4C13.4321 11.576 13.3441 11.736 13.1841 11.88C13.0401 12.008 12.8641 12.072 12.6561 12.072C12.4481 12.072 12.2561 11.992 12.0801 11.832C11.9201 11.672 11.8401 11.488 11.8401 11.28C11.8401 10.864 11.9681 10.488 12.2241 10.152C12.4801 9.8 12.8161 9.52 13.2321 9.312C13.6641 9.104 14.1361 9 14.6481 9C15.4961 9 16.2001 9.232 16.7601 9.696C17.3201 10.144 17.6001 10.728 17.6001 11.448C17.6001 12.12 17.4481 12.64 17.1441 13.008C16.8561 13.376 16.5281 13.696 16.1601 13.968C15.9041 14.16 15.6801 14.352 15.4881 14.544C15.3121 14.72 15.2241 14.912 15.2241 15.12V15.696ZM14.6241 19.44C14.3201 19.44 14.0561 19.336 13.8321 19.128C13.6241 18.936 13.5201 18.704 13.5201 18.432C13.5201 18.144 13.6241 17.904 13.8321 17.712C14.0561 17.504 14.3201 17.4 14.6241 17.4C14.9121 17.4 15.1601 17.504 15.3681 17.712C15.5761 17.904 15.6801 18.144 15.6801 18.432C15.6801 18.704 15.5761 18.936 15.3681 19.128C15.1601 19.336 14.9121 19.44 14.6241 19.44Z" fill="white"/>
</svg>
