<?xml version="1.0"?>
<svg xmlns="http://www.w3.org/2000/svg" width="30" height="30" viewBox="0 0 30 30" fill="none">
<rect x="15.0697" y="2.69144" width="13" height="21" rx="3" transform="rotate(12.8829 15.0697 2.69144)" stroke="white" stroke-width="2"/>
<path d="M6.06401 24.0325L3.24735 13.6224C2.67037 11.4899 3.93134 9.2935 6.0638 8.71652L11.638 7.20831C11.8762 7.14387 12.1259 7.13489 12.3681 7.18208C13.2614 7.35611 13.8343 8.23396 13.6338 9.12172L11.0934 20.372C10.7604 21.8467 11.6368 23.3248 13.0905 23.7401L14 24L15.9937 24.4984C16.5261 24.6315 16.5307 25.3865 16 25.526L10.9427 26.8562C8.81682 27.4154 6.63812 26.1544 6.06401 24.0325Z" stroke="white" stroke-width="2"/>
</svg>
